# xmcd
#
# Track frame offsets:
#	150
#	16497
#	32790
#
# Disc length: 664 seconds
#
# Revision: 0
# Processed by: cddbd v1.5.1PL0 Copyright (c) Steve Scherf et al.
# Submitted via: dBpowerAMP V4.0
#
DISCID=1c029603
DTITLE=Original U.S.A. Gospel Chor - Put Yor Hands Together
DYEAR=1994
DGENRE=Gospel
TTITLE0=Put Your Hands Together
TTITLE1=Saved
TTITLE2=People get ready
EXTD=
EXTT0=
EXTT1=
EXTT2=
PLAYORDER=
